<?xml version="1.0" encoding="UTF-8" standalone="no"?>
<!-- Created with Inkscape (http://www.inkscape.org/) -->

<svg
   xmlns:dc="http://purl.org/dc/elements/1.1/"
   xmlns:cc="http://creativecommons.org/ns#"
   xmlns:rdf="http://www.w3.org/1999/02/22-rdf-syntax-ns#"
   xmlns:svg="http://www.w3.org/2000/svg"
   xmlns="http://www.w3.org/2000/svg"
   xmlns:sodipodi="http://sodipodi.sourceforge.net/DTD/sodipodi-0.dtd"
   xmlns:inkscape="http://www.inkscape.org/namespaces/inkscape"
   width="26mm"
   height="37mm"
   viewBox="0 0 92.125983 131.10236"
   id="svg6085"
   version="1.1"
   inkscape:version="0.91 r13725"
   sodipodi:docname="magnifier.svg">
  <defs
     id="defs6087" />
  <sodipodi:namedview
     id="base"
     pagecolor="#ffffff"
     bordercolor="#666666"
     borderopacity="1.0"
     inkscape:pageopacity="0.0"
     inkscape:pageshadow="2"
     inkscape:zoom="1.4"
     inkscape:cx="-262.641"
     inkscape:cy="63.836171"
     inkscape:document-units="px"
     inkscape:current-layer="layer1"
     showgrid="false"
     inkscape:window-width="1920"
     inkscape:window-height="1017"
     inkscape:window-x="-8"
     inkscape:window-y="-8"
     inkscape:window-maximized="1"
     showguides="true"
     inkscape:guide-bbox="true" />
  <metadata
     id="metadata6090">
    <rdf:RDF>
      <cc:Work
         rdf:about="">
        <dc:format>image/svg+xml</dc:format>
        <dc:type
           rdf:resource="http://purl.org/dc/dcmitype/StillImage" />
        <dc:title></dc:title>
      </cc:Work>
    </rdf:RDF>
  </metadata>
  <g
     inkscape:label="Laag 1"
     inkscape:groupmode="layer"
     id="layer1"
     transform="translate(0,-921.25985)">
    <path
       style="opacity:1;fill:#6c5353;fill-opacity:0.94509804;fill-rule:nonzero;stroke:none;stroke-width:1.58158517;stroke-miterlimit:4;stroke-dasharray:1.58158517, 3.16317034;stroke-dashoffset:0;stroke-opacity:1"
       d=""
       id="path6839"
       inkscape:connector-curvature="0"
       transform="translate(0,960.23623)" />
    <path
       style="opacity:1;fill:#6c5353;fill-opacity:0.94509804;fill-rule:nonzero;stroke:none;stroke-width:1.58158517;stroke-miterlimit:4;stroke-dasharray:1.58158517, 3.16317034;stroke-dashoffset:0;stroke-opacity:1"
       d="m 64.930523,1015.5033 -16.54341,-16.51381 -2.852774,1.25791 c -16.342346,7.2061 -35.5721795,-2.30391 -40.0267745,-19.79504 -0.932502,-3.66145 -1.030363,-9.56191 -0.223597,-13.48066 0.314251,-1.52634 1.385609,-4.44897 2.380814,-6.49462 8.7675425,-18.02213 32.8010005,-22.00508 47.0144615,-7.7917 5.767922,5.76799 8.411575,12.26617 8.411575,20.67602 0,5.59722 -0.692195,8.73099 -2.900657,13.13199 l -0.939506,1.8722 16.239943,16.19591 c 8.931978,8.9077 16.456346,16.7392 16.720836,17.4035 0.673658,1.6921 -0.343636,3.4237 -4.136056,7.0408 -5.208351,4.9672 -3.845225,5.7625 -23.144855,-13.5025 z M 39.657367,991.94729 c 7.737066,-2.2977 13.760253,-10.4331 13.760253,-18.58589 0,-5.98115 -3.53709,-12.60925 -8.572469,-16.06376 -9.50813,-6.52292 -23.094053,-2.91489 -28.387959,7.53896 -1.404449,2.77343 -1.532241,3.48445 -1.532241,8.5248 0,5.00381 0.131332,5.74821 1.458551,8.26729 4.681123,8.8846 14.076319,13.05 23.273865,10.3186 z"
       id="path9451"
       inkscape:connector-curvature="0" />
  </g>
</svg>
