<svg xmlns="http://www.w3.org/2000/svg" width="20" height="17" fill="none" style=""><rect id="backgroundrect" width="100%" height="100%" x="0" y="0" fill="none" stroke="none"/>




<g class="currentLayer" style=""><title>Layer 1</title><path d="M19.848300000000002,5.439010255512596 L8.51822,0.026500255512595293 C8.38656,-0.03716974448740486 8.22739,0.017870255512595367 8.16534,0.1489802555125953 L5.69946,5.3100502555125955 H7.04301 L8.85276,1.5178902555125957 L18.6758,6.210060255512595 L15.604,12.639160255512595 L13.874600000000001,11.813560255512595 V15.212360255512596 L14.9381,15.720160255512596 C15.0709,15.784360255512595 15.2279,15.726560255512595 15.291,15.594960255512596 L19.9735,5.7902702555125956 C20.0371,5.659690255512596 19.981,5.501600255512595 19.848300000000002,5.439010255512596 z" fill="#8b8a8f" id="svg_1" class="" fill-opacity="1"/><path d="M12.8225,5.933350255512595 H0.26547200000000015 C0.12032600000000004,5.933350255512595 0,6.0515102555125955 0,6.1966602555125965 V17.063260255512596 C0,17.208860255512594 0.12032600000000004,17.328160255512596 0.26547200000000015,17.328160255512596 H12.822 C12.9682,17.328160255512596 13.0875,17.208860255512594 13.0875,17.063260255512596 V6.1966602555125965 C13.088,6.0515102555125955 12.9688,5.933350255512595 12.8225,5.933350255512595 zM12.0973,14.261160255512594 H11.3015 C10.838000000000001,13.072460255512595 10.2676,11.408460255512598 9.40161,11.630760255512595 C8.386660000000001,11.889760255512595 7.88,14.261160255512594 7.88,14.261160255512594 C7.88,14.261160255512594 7.36038,11.585460255512595 5.92834,10.152860255512595 C4.49576,8.720260255512596 3.10797,14.261160255512594 3.10797,14.261160255512594 H1.21189 V7.134990255512594 H12.0973 V14.261160255512594 z" fill="#8b8a8f" id="svg_2" class="" fill-opacity="1"/><path d="M2.96883,9.552160255512595 C3.45934,9.552160255512595 3.85698,9.154560255512596 3.85698,8.664020255512595 C3.85698,8.173510255512594 3.45934,7.775880255512595 2.96883,7.775880255512595 C2.47832,7.775880255512595 2.08069,8.173510255512594 2.08069,8.664020255512595 C2.08069,9.154560255512596 2.47832,9.552160255512595 2.96883,9.552160255512595 z" fill="#8b8a8f" id="svg_3" class="" fill-opacity="1"/><path d="M8.92742,9.291260255512595 C9.12652,9.291260255512595 9.31322,9.270160255512595 9.47941,9.237260255512595 C9.67312,9.319260255512596 9.90945,9.369460255512596 10.1636,9.369460255512596 C10.8192,9.369460255512596 11.349,9.049460255512596 11.349,8.654530255512595 C11.349,8.260640255512595 10.8192,7.940670255512595 10.1636,7.940670255512595 C9.91808,7.940670255512595 9.69038,7.985460255512596 9.50153,8.063700255512595 C9.42329,7.987610255512596 9.31915,7.940670255512595 9.20314,7.940670255512595 H9.03156 C8.81141,7.940670255512595 8.63821,8.107400255512594 8.61338,8.319450255512598 C8.08352,8.375030255512595 7.68909,8.567120255512595 7.68909,8.795860255512595 C7.68909,9.069460255512595 8.24323,9.291260255512595 8.92742,9.291260255512595 z" fill="#8b8a8f" id="svg_4" class="" fill-opacity="1"/></g></svg>